# xmcd CD database file
#
# Track frame offsets:
#	150
#	16392
#	32523
#	52738
#	74118
#	85394
#	105148
#	128235
#	142088
#	160372
#	178063
#	193239
#	215409
#	229969
#	250070
#	263320
#
# Disc length: 3808 seconds
#
# Revision: 2
# Processed by: cddbd v1.5.2PL0 Copyright (c) Steve Scherf et al.
# Submitted via: CDex 1.51
#
DISCID=de0ede10
DTITLE=Marianne Rosenberg - I'm A Woman
DYEAR=2008
DGENRE=Jazz
TTITLE0=The More I See You
TTITLE1=Wat Liebe aus uns macht (What This Thing Called Love)
TTITLE2=Hallo mein Freund
TTITLE3=Ich muss dich wiedersehen (I've Got To See You Again)
TTITLE4=I'm A Woman
TTITLE5=Allet passiert imma nur mir (Everything Happens To Me)
TTITLE6=You Go To My Head
TTITLE7=Leben ohne Liebe kannst du nicht
TTITLE8=Sag mir wo die Liebe ist (Where Is Love)
TTITLE9=Wenn man verliebt in jemand ist
TTITLE10=Im Schwarzen Café
TTITLE11=Sei still (Speak Low)
TTITLE12=Für mich soll's rote Rosen regnen
TTITLE13=Everytime We Say Goodbye
TTITLE14=Be Sure It's True
TTITLE15=Wenn ick jeh
EXTD=YEAR: 2008
EXTT0=
EXTT1=
EXTT2=
EXTT3=
EXTT4=
EXTT5=
EXTT6=
EXTT7=
EXTT8=
EXTT9=
EXTT10=
EXTT11=
EXTT12=
EXTT13=
EXTT14=
EXTT15=
PLAYORDER=
